solid OpenSCAD_Model
  facet normal -1 0 0
    outer loop
      vertex 26.3 26.3 0
      vertex 26.3 26.3 0.2
      vertex 26.3 46.3 0
    endloop
  endfacet
  facet normal -1 0 0
    outer loop
      vertex 26.3 46.3 0
      vertex 26.3 26.3 0.2
      vertex 26.3 46.3 0.2
    endloop
  endfacet
  facet normal 0 -1 0
    outer loop
      vertex 26.3 26.3 0.2
      vertex 26.3 26.3 0
      vertex 46.3 26.3 0
    endloop
  endfacet
  facet normal 0 -1 0
    outer loop
      vertex 46.3 26.3 0.2
      vertex 26.3 26.3 0.2
      vertex 46.3 26.3 0
    endloop
  endfacet
  facet normal 0 0 -1
    outer loop
      vertex 26.3 26.3 0
      vertex 26.3 46.3 0
      vertex 46.3 26.3 0
    endloop
  endfacet
  facet normal 0 0 -1
    outer loop
      vertex 46.3 26.3 0
      vertex 26.3 46.3 0
      vertex 46.3 46.3 0
    endloop
  endfacet
  facet normal 0 1 0
    outer loop
      vertex 26.3 46.3 0
      vertex 26.3 46.3 0.2
      vertex 46.3 46.3 0
    endloop
  endfacet
  facet normal 0 1 0
    outer loop
      vertex 46.3 46.3 0
      vertex 26.3 46.3 0.2
      vertex 46.3 46.3 0.2
    endloop
  endfacet
  facet normal 0 0 1
    outer loop
      vertex 26.3 46.3 0.2
      vertex 26.3 26.3 0.2
      vertex 46.3 26.3 0.2
    endloop
  endfacet
  facet normal 0 0 1
    outer loop
      vertex 46.3 46.3 0.2
      vertex 26.3 46.3 0.2
      vertex 46.3 26.3 0.2
    endloop
  endfacet
  facet normal 1 0 0
    outer loop
      vertex 46.3 26.3 0.2
      vertex 46.3 26.3 0
      vertex 46.3 46.3 0
    endloop
  endfacet
  facet normal 1 0 0
    outer loop
      vertex 46.3 46.3 0.2
      vertex 46.3 26.3 0.2
      vertex 46.3 46.3 0
    endloop
  endfacet
  facet normal -1 0 0
    outer loop
      vertex 25 25 0
      vertex 25 25 0.2
      vertex 25 47.6 0
    endloop
  endfacet
  facet normal -1 0 0
    outer loop
      vertex 25 47.6 0
      vertex 25 25 0.2
      vertex 25 47.6 0.2
    endloop
  endfacet
  facet normal 0 -1 0
    outer loop
      vertex 25 25 0.2
      vertex 25 25 0
      vertex 47.6 25 0
    endloop
  endfacet
  facet normal 0 -1 0
    outer loop
      vertex 47.6 25 0.2
      vertex 25 25 0.2
      vertex 47.6 25 0
    endloop
  endfacet
  facet normal 0 0 -1
    outer loop
      vertex 46.8 25.8 0
      vertex 47.6 25 0
      vertex 25.8 25.8 0
    endloop
  endfacet
  facet normal 0 0 -1
    outer loop
      vertex 25.8 46.8 0
      vertex 25 47.6 0
      vertex 47.6 47.6 0
    endloop
  endfacet
  facet normal 0 0 -1
    outer loop
      vertex 46.8 46.8 0
      vertex 25.8 46.8 0
      vertex 47.6 47.6 0
    endloop
  endfacet
  facet normal 0 0 -1
    outer loop
      vertex 25 25 0
      vertex 25 47.6 0
      vertex 25.8 25.8 0
    endloop
  endfacet
  facet normal 0 0 -1
    outer loop
      vertex 25 25 0
      vertex 25.8 25.8 0
      vertex 47.6 25 0
    endloop
  endfacet
  facet normal 0 0 -1
    outer loop
      vertex 47.6 25 0
      vertex 46.8 25.8 0
      vertex 47.6 47.6 0
    endloop
  endfacet
  facet normal 0 0 -1
    outer loop
      vertex 46.8 25.8 0
      vertex 46.8 46.8 0
      vertex 47.6 47.6 0
    endloop
  endfacet
  facet normal 0 0 -1
    outer loop
      vertex 25.8 25.8 0
      vertex 25 47.6 0
      vertex 25.8 46.8 0
    endloop
  endfacet
  facet normal 0 1 0
    outer loop
      vertex 25 47.6 0
      vertex 25 47.6 0.2
      vertex 47.6 47.6 0
    endloop
  endfacet
  facet normal 0 1 0
    outer loop
      vertex 47.6 47.6 0
      vertex 25 47.6 0.2
      vertex 47.6 47.6 0.2
    endloop
  endfacet
  facet normal 0 0 1
    outer loop
      vertex 25.8 25.8 0.2
      vertex 25 25 0.2
      vertex 47.6 25 0.2
    endloop
  endfacet
  facet normal 0 0 1
    outer loop
      vertex 25 47.6 0.2
      vertex 25 25 0.2
      vertex 25.8 25.8 0.2
    endloop
  endfacet
  facet normal 0 0 1
    outer loop
      vertex 47.6 47.6 0.2
      vertex 25 47.6 0.2
      vertex 25.8 46.8 0.2
    endloop
  endfacet
  facet normal 0 0 1
    outer loop
      vertex 47.6 47.6 0.2
      vertex 46.8 46.8 0.2
      vertex 47.6 25 0.2
    endloop
  endfacet
  facet normal 0 0 1
    outer loop
      vertex 47.6 47.6 0.2
      vertex 25.8 46.8 0.2
      vertex 46.8 46.8 0.2
    endloop
  endfacet
  facet normal 0 0 1
    outer loop
      vertex 46.8 46.8 0.2
      vertex 46.8 25.8 0.2
      vertex 47.6 25 0.2
    endloop
  endfacet
  facet normal 0 0 1
    outer loop
      vertex 25.8 25.8 0.2
      vertex 25.8 46.8 0.2
      vertex 25 47.6 0.2
    endloop
  endfacet
  facet normal 0 0 1
    outer loop
      vertex 46.8 25.8 0.2
      vertex 25.8 25.8 0.2
      vertex 47.6 25 0.2
    endloop
  endfacet
  facet normal 1 0 0
    outer loop
      vertex 47.6 25 0.2
      vertex 47.6 25 0
      vertex 47.6 47.6 0
    endloop
  endfacet
  facet normal 1 0 0
    outer loop
      vertex 47.6 47.6 0.2
      vertex 47.6 25 0.2
      vertex 47.6 47.6 0
    endloop
  endfacet
  facet normal 1 0 0
    outer loop
      vertex 25.8 46.8 0
      vertex 25.8 46.8 0.2
      vertex 25.8 25.8 0.2
    endloop
  endfacet
  facet normal 1 0 0
    outer loop
      vertex 25.8 25.8 0
      vertex 25.8 46.8 0
      vertex 25.8 25.8 0.2
    endloop
  endfacet
  facet normal 0 -1 0
    outer loop
      vertex 46.8 46.8 0
      vertex 46.8 46.8 0.2
      vertex 25.8 46.8 0.2
    endloop
  endfacet
  facet normal 0 -1 0
    outer loop
      vertex 25.8 46.8 0
      vertex 46.8 46.8 0
      vertex 25.8 46.8 0.2
    endloop
  endfacet
  facet normal -1 0 0
    outer loop
      vertex 46.8 46.8 0.2
      vertex 46.8 46.8 0
      vertex 46.8 25.8 0.2
    endloop
  endfacet
  facet normal -1 0 0
    outer loop
      vertex 46.8 25.8 0.2
      vertex 46.8 46.8 0
      vertex 46.8 25.8 0
    endloop
  endfacet
  facet normal 0 1 0
    outer loop
      vertex 46.8 25.8 0.2
      vertex 46.8 25.8 0
      vertex 25.8 25.8 0.2
    endloop
  endfacet
  facet normal 0 1 0
    outer loop
      vertex 25.8 25.8 0.2
      vertex 46.8 25.8 0
      vertex 25.8 25.8 0
    endloop
  endfacet
  facet normal -1 0 0
    outer loop
      vertex 96.3 26.3 0
      vertex 96.3 26.3 0.2
      vertex 96.3 46.3 0
    endloop
  endfacet
  facet normal -1 0 0
    outer loop
      vertex 96.3 46.3 0
      vertex 96.3 26.3 0.2
      vertex 96.3 46.3 0.2
    endloop
  endfacet
  facet normal 0 -1 0
    outer loop
      vertex 96.3 26.3 0.2
      vertex 96.3 26.3 0
      vertex 116.3 26.3 0
    endloop
  endfacet
  facet normal 0 -1 0
    outer loop
      vertex 116.3 26.3 0.2
      vertex 96.3 26.3 0.2
      vertex 116.3 26.3 0
    endloop
  endfacet
  facet normal 0 0 -1
    outer loop
      vertex 96.3 26.3 0
      vertex 96.3 46.3 0
      vertex 116.3 26.3 0
    endloop
  endfacet
  facet normal 0 0 -1
    outer loop
      vertex 116.3 26.3 0
      vertex 96.3 46.3 0
      vertex 116.3 46.3 0
    endloop
  endfacet
  facet normal 0 1 0
    outer loop
      vertex 96.3 46.3 0
      vertex 96.3 46.3 0.2
      vertex 116.3 46.3 0
    endloop
  endfacet
  facet normal 0 1 0
    outer loop
      vertex 116.3 46.3 0
      vertex 96.3 46.3 0.2
      vertex 116.3 46.3 0.2
    endloop
  endfacet
  facet normal 0 0 1
    outer loop
      vertex 96.3 46.3 0.2
      vertex 96.3 26.3 0.2
      vertex 116.3 26.3 0.2
    endloop
  endfacet
  facet normal 0 0 1
    outer loop
      vertex 116.3 46.3 0.2
      vertex 96.3 46.3 0.2
      vertex 116.3 26.3 0.2
    endloop
  endfacet
  facet normal 1 0 0
    outer loop
      vertex 116.3 26.3 0.2
      vertex 116.3 26.3 0
      vertex 116.3 46.3 0
    endloop
  endfacet
  facet normal 1 0 0
    outer loop
      vertex 116.3 46.3 0.2
      vertex 116.3 26.3 0.2
      vertex 116.3 46.3 0
    endloop
  endfacet
  facet normal -1 0 0
    outer loop
      vertex 95 25 0
      vertex 95 25 0.2
      vertex 95 47.6 0
    endloop
  endfacet
  facet normal -1 0 0
    outer loop
      vertex 95 47.6 0
      vertex 95 25 0.2
      vertex 95 47.6 0.2
    endloop
  endfacet
  facet normal 0 -1 0
    outer loop
      vertex 95 25 0.2
      vertex 95 25 0
      vertex 117.6 25 0
    endloop
  endfacet
  facet normal 0 -1 0
    outer loop
      vertex 117.6 25 0.2
      vertex 95 25 0.2
      vertex 117.6 25 0
    endloop
  endfacet
  facet normal 0 0 -1
    outer loop
      vertex 116.8 25.8 0
      vertex 117.6 25 0
      vertex 95.8 25.8 0
    endloop
  endfacet
  facet normal 0 0 -1
    outer loop
      vertex 95.8 46.8 0
      vertex 95 47.6 0
      vertex 117.6 47.6 0
    endloop
  endfacet
  facet normal 0 0 -1
    outer loop
      vertex 116.8 46.8 0
      vertex 95.8 46.8 0
      vertex 117.6 47.6 0
    endloop
  endfacet
  facet normal 0 0 -1
    outer loop
      vertex 95 25 0
      vertex 95 47.6 0
      vertex 95.8 25.8 0
    endloop
  endfacet
  facet normal 0 0 -1
    outer loop
      vertex 95 25 0
      vertex 95.8 25.8 0
      vertex 117.6 25 0
    endloop
  endfacet
  facet normal 0 0 -1
    outer loop
      vertex 117.6 25 0
      vertex 116.8 25.8 0
      vertex 117.6 47.6 0
    endloop
  endfacet
  facet normal 0 0 -1
    outer loop
      vertex 116.8 25.8 0
      vertex 116.8 46.8 0
      vertex 117.6 47.6 0
    endloop
  endfacet
  facet normal 0 0 -1
    outer loop
      vertex 95.8 25.8 0
      vertex 95 47.6 0
      vertex 95.8 46.8 0
    endloop
  endfacet
  facet normal 0 1 0
    outer loop
      vertex 95 47.6 0
      vertex 95 47.6 0.2
      vertex 117.6 47.6 0
    endloop
  endfacet
  facet normal 0 1 0
    outer loop
      vertex 117.6 47.6 0
      vertex 95 47.6 0.2
      vertex 117.6 47.6 0.2
    endloop
  endfacet
  facet normal 0 0 1
    outer loop
      vertex 95.8 25.8 0.2
      vertex 95 25 0.2
      vertex 117.6 25 0.2
    endloop
  endfacet
  facet normal 0 0 1
    outer loop
      vertex 95 47.6 0.2
      vertex 95 25 0.2
      vertex 95.8 25.8 0.2
    endloop
  endfacet
  facet normal 0 0 1
    outer loop
      vertex 117.6 47.6 0.2
      vertex 95 47.6 0.2
      vertex 95.8 46.8 0.2
    endloop
  endfacet
  facet normal 0 0 1
    outer loop
      vertex 117.6 47.6 0.2
      vertex 116.8 46.8 0.2
      vertex 117.6 25 0.2
    endloop
  endfacet
  facet normal 0 0 1
    outer loop
      vertex 117.6 47.6 0.2
      vertex 95.8 46.8 0.2
      vertex 116.8 46.8 0.2
    endloop
  endfacet
  facet normal 0 0 1
    outer loop
      vertex 116.8 46.8 0.2
      vertex 116.8 25.8 0.2
      vertex 117.6 25 0.2
    endloop
  endfacet
  facet normal 0 0 1
    outer loop
      vertex 95.8 25.8 0.2
      vertex 95.8 46.8 0.2
      vertex 95 47.6 0.2
    endloop
  endfacet
  facet normal 0 0 1
    outer loop
      vertex 116.8 25.8 0.2
      vertex 95.8 25.8 0.2
      vertex 117.6 25 0.2
    endloop
  endfacet
  facet normal 1 0 0
    outer loop
      vertex 117.6 25 0.2
      vertex 117.6 25 0
      vertex 117.6 47.6 0
    endloop
  endfacet
  facet normal 1 0 0
    outer loop
      vertex 117.6 47.6 0.2
      vertex 117.6 25 0.2
      vertex 117.6 47.6 0
    endloop
  endfacet
  facet normal 1 0 0
    outer loop
      vertex 95.8 46.8 0
      vertex 95.8 46.8 0.2
      vertex 95.8 25.8 0.2
    endloop
  endfacet
  facet normal 1 0 0
    outer loop
      vertex 95.8 25.8 0
      vertex 95.8 46.8 0
      vertex 95.8 25.8 0.2
    endloop
  endfacet
  facet normal 0 -1 0
    outer loop
      vertex 116.8 46.8 0
      vertex 116.8 46.8 0.2
      vertex 95.8 46.8 0.2
    endloop
  endfacet
  facet normal 0 -1 0
    outer loop
      vertex 95.8 46.8 0
      vertex 116.8 46.8 0
      vertex 95.8 46.8 0.2
    endloop
  endfacet
  facet normal -1 0 0
    outer loop
      vertex 116.8 46.8 0.2
      vertex 116.8 46.8 0
      vertex 116.8 25.8 0.2
    endloop
  endfacet
  facet normal -1 0 0
    outer loop
      vertex 116.8 25.8 0.2
      vertex 116.8 46.8 0
      vertex 116.8 25.8 0
    endloop
  endfacet
  facet normal 0 1 0
    outer loop
      vertex 116.8 25.8 0.2
      vertex 116.8 25.8 0
      vertex 95.8 25.8 0.2
    endloop
  endfacet
  facet normal 0 1 0
    outer loop
      vertex 95.8 25.8 0.2
      vertex 116.8 25.8 0
      vertex 95.8 25.8 0
    endloop
  endfacet
  facet normal -1 0 0
    outer loop
      vertex 166.3 26.3 0
      vertex 166.3 26.3 0.2
      vertex 166.3 46.3 0
    endloop
  endfacet
  facet normal -1 0 0
    outer loop
      vertex 166.3 46.3 0
      vertex 166.3 26.3 0.2
      vertex 166.3 46.3 0.2
    endloop
  endfacet
  facet normal 0 -1 0
    outer loop
      vertex 166.3 26.3 0.2
      vertex 166.3 26.3 0
      vertex 186.3 26.3 0
    endloop
  endfacet
  facet normal 0 -1 0
    outer loop
      vertex 186.3 26.3 0.2
      vertex 166.3 26.3 0.2
      vertex 186.3 26.3 0
    endloop
  endfacet
  facet normal 0 0 -1
    outer loop
      vertex 166.3 26.3 0
      vertex 166.3 46.3 0
      vertex 186.3 26.3 0
    endloop
  endfacet
  facet normal 0 0 -1
    outer loop
      vertex 186.3 26.3 0
      vertex 166.3 46.3 0
      vertex 186.3 46.3 0
    endloop
  endfacet
  facet normal 0 1 0
    outer loop
      vertex 166.3 46.3 0
      vertex 166.3 46.3 0.2
      vertex 186.3 46.3 0
    endloop
  endfacet
  facet normal 0 1 0
    outer loop
      vertex 186.3 46.3 0
      vertex 166.3 46.3 0.2
      vertex 186.3 46.3 0.2
    endloop
  endfacet
  facet normal 0 0 1
    outer loop
      vertex 166.3 46.3 0.2
      vertex 166.3 26.3 0.2
      vertex 186.3 26.3 0.2
    endloop
  endfacet
  facet normal 0 0 1
    outer loop
      vertex 186.3 46.3 0.2
      vertex 166.3 46.3 0.2
      vertex 186.3 26.3 0.2
    endloop
  endfacet
  facet normal 1 0 0
    outer loop
      vertex 186.3 26.3 0.2
      vertex 186.3 26.3 0
      vertex 186.3 46.3 0
    endloop
  endfacet
  facet normal 1 0 0
    outer loop
      vertex 186.3 46.3 0.2
      vertex 186.3 26.3 0.2
      vertex 186.3 46.3 0
    endloop
  endfacet
  facet normal -1 0 0
    outer loop
      vertex 165 25 0
      vertex 165 25 0.2
      vertex 165 47.6 0
    endloop
  endfacet
  facet normal -1 0 0
    outer loop
      vertex 165 47.6 0
      vertex 165 25 0.2
      vertex 165 47.6 0.2
    endloop
  endfacet
  facet normal 0 -1 0
    outer loop
      vertex 165 25 0.2
      vertex 165 25 0
      vertex 187.6 25 0
    endloop
  endfacet
  facet normal 0 -1 0
    outer loop
      vertex 187.6 25 0.2
      vertex 165 25 0.2
      vertex 187.6 25 0
    endloop
  endfacet
  facet normal 0 0 -1
    outer loop
      vertex 186.8 25.8 0
      vertex 187.6 25 0
      vertex 165.8 25.8 0
    endloop
  endfacet
  facet normal 0 0 -1
    outer loop
      vertex 165.8 46.8 0
      vertex 165 47.6 0
      vertex 187.6 47.6 0
    endloop
  endfacet
  facet normal 0 0 -1
    outer loop
      vertex 186.8 46.8 0
      vertex 165.8 46.8 0
      vertex 187.6 47.6 0
    endloop
  endfacet
  facet normal 0 0 -1
    outer loop
      vertex 165 25 0
      vertex 165 47.6 0
      vertex 165.8 25.8 0
    endloop
  endfacet
  facet normal 0 0 -1
    outer loop
      vertex 165 25 0
      vertex 165.8 25.8 0
      vertex 187.6 25 0
    endloop
  endfacet
  facet normal 0 0 -1
    outer loop
      vertex 187.6 25 0
      vertex 186.8 25.8 0
      vertex 187.6 47.6 0
    endloop
  endfacet
  facet normal 0 0 -1
    outer loop
      vertex 186.8 25.8 0
      vertex 186.8 46.8 0
      vertex 187.6 47.6 0
    endloop
  endfacet
  facet normal 0 0 -1
    outer loop
      vertex 165.8 25.8 0
      vertex 165 47.6 0
      vertex 165.8 46.8 0
    endloop
  endfacet
  facet normal 0 1 0
    outer loop
      vertex 165 47.6 0
      vertex 165 47.6 0.2
      vertex 187.6 47.6 0
    endloop
  endfacet
  facet normal 0 1 0
    outer loop
      vertex 187.6 47.6 0
      vertex 165 47.6 0.2
      vertex 187.6 47.6 0.2
    endloop
  endfacet
  facet normal 0 0 1
    outer loop
      vertex 165.8 25.8 0.2
      vertex 165 25 0.2
      vertex 187.6 25 0.2
    endloop
  endfacet
  facet normal 0 0 1
    outer loop
      vertex 165 47.6 0.2
      vertex 165 25 0.2
      vertex 165.8 25.8 0.2
    endloop
  endfacet
  facet normal 0 0 1
    outer loop
      vertex 187.6 47.6 0.2
      vertex 165 47.6 0.2
      vertex 165.8 46.8 0.2
    endloop
  endfacet
  facet normal 0 0 1
    outer loop
      vertex 187.6 47.6 0.2
      vertex 186.8 46.8 0.2
      vertex 187.6 25 0.2
    endloop
  endfacet
  facet normal 0 0 1
    outer loop
      vertex 187.6 47.6 0.2
      vertex 165.8 46.8 0.2
      vertex 186.8 46.8 0.2
    endloop
  endfacet
  facet normal 0 0 1
    outer loop
      vertex 186.8 46.8 0.2
      vertex 186.8 25.8 0.2
      vertex 187.6 25 0.2
    endloop
  endfacet
  facet normal 0 0 1
    outer loop
      vertex 165.8 25.8 0.2
      vertex 165.8 46.8 0.2
      vertex 165 47.6 0.2
    endloop
  endfacet
  facet normal 0 0 1
    outer loop
      vertex 186.8 25.8 0.2
      vertex 165.8 25.8 0.2
      vertex 187.6 25 0.2
    endloop
  endfacet
  facet normal 1 0 0
    outer loop
      vertex 187.6 25 0.2
      vertex 187.6 25 0
      vertex 187.6 47.6 0
    endloop
  endfacet
  facet normal 1 0 0
    outer loop
      vertex 187.6 47.6 0.2
      vertex 187.6 25 0.2
      vertex 187.6 47.6 0
    endloop
  endfacet
  facet normal 1 0 0
    outer loop
      vertex 165.8 46.8 0
      vertex 165.8 46.8 0.2
      vertex 165.8 25.8 0.2
    endloop
  endfacet
  facet normal 1 0 0
    outer loop
      vertex 165.8 25.8 0
      vertex 165.8 46.8 0
      vertex 165.8 25.8 0.2
    endloop
  endfacet
  facet normal 0 -1 0
    outer loop
      vertex 186.8 46.8 0
      vertex 186.8 46.8 0.2
      vertex 165.8 46.8 0.2
    endloop
  endfacet
  facet normal 0 -1 0
    outer loop
      vertex 165.8 46.8 0
      vertex 186.8 46.8 0
      vertex 165.8 46.8 0.2
    endloop
  endfacet
  facet normal -1 0 0
    outer loop
      vertex 186.8 46.8 0.2
      vertex 186.8 46.8 0
      vertex 186.8 25.8 0.2
    endloop
  endfacet
  facet normal -1 0 0
    outer loop
      vertex 186.8 25.8 0.2
      vertex 186.8 46.8 0
      vertex 186.8 25.8 0
    endloop
  endfacet
  facet normal 0 1 0
    outer loop
      vertex 186.8 25.8 0.2
      vertex 186.8 25.8 0
      vertex 165.8 25.8 0.2
    endloop
  endfacet
  facet normal 0 1 0
    outer loop
      vertex 165.8 25.8 0.2
      vertex 186.8 25.8 0
      vertex 165.8 25.8 0
    endloop
  endfacet
  facet normal -1 0 0
    outer loop
      vertex 26.3 80.3 0
      vertex 26.3 80.3 0.2
      vertex 26.3 100.3 0
    endloop
  endfacet
  facet normal -1 0 0
    outer loop
      vertex 26.3 100.3 0
      vertex 26.3 80.3 0.2
      vertex 26.3 100.3 0.2
    endloop
  endfacet
  facet normal 0 -1 0
    outer loop
      vertex 26.3 80.3 0.2
      vertex 26.3 80.3 0
      vertex 46.3 80.3 0
    endloop
  endfacet
  facet normal 0 -1 0
    outer loop
      vertex 46.3 80.3 0.2
      vertex 26.3 80.3 0.2
      vertex 46.3 80.3 0
    endloop
  endfacet
  facet normal 0 0 -1
    outer loop
      vertex 26.3 80.3 0
      vertex 26.3 100.3 0
      vertex 46.3 80.3 0
    endloop
  endfacet
  facet normal 0 0 -1
    outer loop
      vertex 46.3 80.3 0
      vertex 26.3 100.3 0
      vertex 46.3 100.3 0
    endloop
  endfacet
  facet normal 0 1 0
    outer loop
      vertex 26.3 100.3 0
      vertex 26.3 100.3 0.2
      vertex 46.3 100.3 0
    endloop
  endfacet
  facet normal 0 1 0
    outer loop
      vertex 46.3 100.3 0
      vertex 26.3 100.3 0.2
      vertex 46.3 100.3 0.2
    endloop
  endfacet
  facet normal 0 0 1
    outer loop
      vertex 26.3 100.3 0.2
      vertex 26.3 80.3 0.2
      vertex 46.3 80.3 0.2
    endloop
  endfacet
  facet normal 0 0 1
    outer loop
      vertex 46.3 100.3 0.2
      vertex 26.3 100.3 0.2
      vertex 46.3 80.3 0.2
    endloop
  endfacet
  facet normal 1 0 0
    outer loop
      vertex 46.3 80.3 0.2
      vertex 46.3 80.3 0
      vertex 46.3 100.3 0
    endloop
  endfacet
  facet normal 1 0 0
    outer loop
      vertex 46.3 100.3 0.2
      vertex 46.3 80.3 0.2
      vertex 46.3 100.3 0
    endloop
  endfacet
  facet normal -1 0 0
    outer loop
      vertex 25 79 0
      vertex 25 79 0.2
      vertex 25 101.6 0
    endloop
  endfacet
  facet normal -1 0 0
    outer loop
      vertex 25 101.6 0
      vertex 25 79 0.2
      vertex 25 101.6 0.2
    endloop
  endfacet
  facet normal 0 -1 0
    outer loop
      vertex 25 79 0.2
      vertex 25 79 0
      vertex 47.6 79 0
    endloop
  endfacet
  facet normal 0 -1 0
    outer loop
      vertex 47.6 79 0.2
      vertex 25 79 0.2
      vertex 47.6 79 0
    endloop
  endfacet
  facet normal 0 0 -1
    outer loop
      vertex 46.8 79.8 0
      vertex 47.6 79 0
      vertex 25.8 79.8 0
    endloop
  endfacet
  facet normal 0 0 -1
    outer loop
      vertex 25.8 100.8 0
      vertex 25 101.6 0
      vertex 47.6 101.6 0
    endloop
  endfacet
  facet normal 0 0 -1
    outer loop
      vertex 46.8 100.8 0
      vertex 25.8 100.8 0
      vertex 47.6 101.6 0
    endloop
  endfacet
  facet normal 0 0 -1
    outer loop
      vertex 25 79 0
      vertex 25 101.6 0
      vertex 25.8 79.8 0
    endloop
  endfacet
  facet normal 0 0 -1
    outer loop
      vertex 25 79 0
      vertex 25.8 79.8 0
      vertex 47.6 79 0
    endloop
  endfacet
  facet normal 0 0 -1
    outer loop
      vertex 47.6 79 0
      vertex 46.8 79.8 0
      vertex 47.6 101.6 0
    endloop
  endfacet
  facet normal 0 0 -1
    outer loop
      vertex 46.8 79.8 0
      vertex 46.8 100.8 0
      vertex 47.6 101.6 0
    endloop
  endfacet
  facet normal 0 0 -1
    outer loop
      vertex 25.8 79.8 0
      vertex 25 101.6 0
      vertex 25.8 100.8 0
    endloop
  endfacet
  facet normal 0 1 0
    outer loop
      vertex 25 101.6 0
      vertex 25 101.6 0.2
      vertex 47.6 101.6 0
    endloop
  endfacet
  facet normal 0 1 0
    outer loop
      vertex 47.6 101.6 0
      vertex 25 101.6 0.2
      vertex 47.6 101.6 0.2
    endloop
  endfacet
  facet normal 0 0 1
    outer loop
      vertex 25.8 79.8 0.2
      vertex 25 79 0.2
      vertex 47.6 79 0.2
    endloop
  endfacet
  facet normal 0 0 1
    outer loop
      vertex 25 101.6 0.2
      vertex 25 79 0.2
      vertex 25.8 79.8 0.2
    endloop
  endfacet
  facet normal 0 0 1
    outer loop
      vertex 47.6 101.6 0.2
      vertex 25 101.6 0.2
      vertex 25.8 100.8 0.2
    endloop
  endfacet
  facet normal 0 0 1
    outer loop
      vertex 47.6 101.6 0.2
      vertex 46.8 100.8 0.2
      vertex 47.6 79 0.2
    endloop
  endfacet
  facet normal 0 0 1
    outer loop
      vertex 47.6 101.6 0.2
      vertex 25.8 100.8 0.2
      vertex 46.8 100.8 0.2
    endloop
  endfacet
  facet normal 0 0 1
    outer loop
      vertex 46.8 100.8 0.2
      vertex 46.8 79.8 0.2
      vertex 47.6 79 0.2
    endloop
  endfacet
  facet normal 0 0 1
    outer loop
      vertex 25.8 79.8 0.2
      vertex 25.8 100.8 0.2
      vertex 25 101.6 0.2
    endloop
  endfacet
  facet normal 0 0 1
    outer loop
      vertex 46.8 79.8 0.2
      vertex 25.8 79.8 0.2
      vertex 47.6 79 0.2
    endloop
  endfacet
  facet normal 1 0 0
    outer loop
      vertex 47.6 79 0.2
      vertex 47.6 79 0
      vertex 47.6 101.6 0
    endloop
  endfacet
  facet normal 1 0 0
    outer loop
      vertex 47.6 101.6 0.2
      vertex 47.6 79 0.2
      vertex 47.6 101.6 0
    endloop
  endfacet
  facet normal 1 0 0
    outer loop
      vertex 25.8 100.8 0
      vertex 25.8 100.8 0.2
      vertex 25.8 79.8 0.2
    endloop
  endfacet
  facet normal 1 0 0
    outer loop
      vertex 25.8 79.8 0
      vertex 25.8 100.8 0
      vertex 25.8 79.8 0.2
    endloop
  endfacet
  facet normal 0 -1 0
    outer loop
      vertex 46.8 100.8 0
      vertex 46.8 100.8 0.2
      vertex 25.8 100.8 0.2
    endloop
  endfacet
  facet normal 0 -1 0
    outer loop
      vertex 25.8 100.8 0
      vertex 46.8 100.8 0
      vertex 25.8 100.8 0.2
    endloop
  endfacet
  facet normal -1 0 0
    outer loop
      vertex 46.8 100.8 0.2
      vertex 46.8 100.8 0
      vertex 46.8 79.8 0.2
    endloop
  endfacet
  facet normal -1 0 0
    outer loop
      vertex 46.8 79.8 0.2
      vertex 46.8 100.8 0
      vertex 46.8 79.8 0
    endloop
  endfacet
  facet normal 0 1 0
    outer loop
      vertex 46.8 79.8 0.2
      vertex 46.8 79.8 0
      vertex 25.8 79.8 0.2
    endloop
  endfacet
  facet normal 0 1 0
    outer loop
      vertex 25.8 79.8 0.2
      vertex 46.8 79.8 0
      vertex 25.8 79.8 0
    endloop
  endfacet
  facet normal -1 0 0
    outer loop
      vertex 96.3 80.3 0
      vertex 96.3 80.3 0.2
      vertex 96.3 100.3 0
    endloop
  endfacet
  facet normal -1 0 0
    outer loop
      vertex 96.3 100.3 0
      vertex 96.3 80.3 0.2
      vertex 96.3 100.3 0.2
    endloop
  endfacet
  facet normal 0 -1 0
    outer loop
      vertex 96.3 80.3 0.2
      vertex 96.3 80.3 0
      vertex 116.3 80.3 0
    endloop
  endfacet
  facet normal 0 -1 0
    outer loop
      vertex 116.3 80.3 0.2
      vertex 96.3 80.3 0.2
      vertex 116.3 80.3 0
    endloop
  endfacet
  facet normal 0 0 -1
    outer loop
      vertex 96.3 80.3 0
      vertex 96.3 100.3 0
      vertex 116.3 80.3 0
    endloop
  endfacet
  facet normal 0 0 -1
    outer loop
      vertex 116.3 80.3 0
      vertex 96.3 100.3 0
      vertex 116.3 100.3 0
    endloop
  endfacet
  facet normal 0 1 0
    outer loop
      vertex 96.3 100.3 0
      vertex 96.3 100.3 0.2
      vertex 116.3 100.3 0
    endloop
  endfacet
  facet normal 0 1 0
    outer loop
      vertex 116.3 100.3 0
      vertex 96.3 100.3 0.2
      vertex 116.3 100.3 0.2
    endloop
  endfacet
  facet normal 0 0 1
    outer loop
      vertex 96.3 100.3 0.2
      vertex 96.3 80.3 0.2
      vertex 116.3 80.3 0.2
    endloop
  endfacet
  facet normal 0 0 1
    outer loop
      vertex 116.3 100.3 0.2
      vertex 96.3 100.3 0.2
      vertex 116.3 80.3 0.2
    endloop
  endfacet
  facet normal 1 0 0
    outer loop
      vertex 116.3 80.3 0.2
      vertex 116.3 80.3 0
      vertex 116.3 100.3 0
    endloop
  endfacet
  facet normal 1 0 0
    outer loop
      vertex 116.3 100.3 0.2
      vertex 116.3 80.3 0.2
      vertex 116.3 100.3 0
    endloop
  endfacet
  facet normal -1 0 0
    outer loop
      vertex 95 79 0
      vertex 95 79 0.2
      vertex 95 101.6 0
    endloop
  endfacet
  facet normal -1 0 0
    outer loop
      vertex 95 101.6 0
      vertex 95 79 0.2
      vertex 95 101.6 0.2
    endloop
  endfacet
  facet normal 0 -1 0
    outer loop
      vertex 95 79 0.2
      vertex 95 79 0
      vertex 117.6 79 0
    endloop
  endfacet
  facet normal 0 -1 0
    outer loop
      vertex 117.6 79 0.2
      vertex 95 79 0.2
      vertex 117.6 79 0
    endloop
  endfacet
  facet normal 0 0 -1
    outer loop
      vertex 116.8 79.8 0
      vertex 117.6 79 0
      vertex 95.8 79.8 0
    endloop
  endfacet
  facet normal 0 0 -1
    outer loop
      vertex 95.8 100.8 0
      vertex 95 101.6 0
      vertex 117.6 101.6 0
    endloop
  endfacet
  facet normal 0 0 -1
    outer loop
      vertex 116.8 100.8 0
      vertex 95.8 100.8 0
      vertex 117.6 101.6 0
    endloop
  endfacet
  facet normal 0 0 -1
    outer loop
      vertex 95 79 0
      vertex 95 101.6 0
      vertex 95.8 79.8 0
    endloop
  endfacet
  facet normal 0 0 -1
    outer loop
      vertex 95 79 0
      vertex 95.8 79.8 0
      vertex 117.6 79 0
    endloop
  endfacet
  facet normal 0 0 -1
    outer loop
      vertex 117.6 79 0
      vertex 116.8 79.8 0
      vertex 117.6 101.6 0
    endloop
  endfacet
  facet normal 0 0 -1
    outer loop
      vertex 116.8 79.8 0
      vertex 116.8 100.8 0
      vertex 117.6 101.6 0
    endloop
  endfacet
  facet normal 0 0 -1
    outer loop
      vertex 95.8 79.8 0
      vertex 95 101.6 0
      vertex 95.8 100.8 0
    endloop
  endfacet
  facet normal 0 1 0
    outer loop
      vertex 95 101.6 0
      vertex 95 101.6 0.2
      vertex 117.6 101.6 0
    endloop
  endfacet
  facet normal 0 1 0
    outer loop
      vertex 117.6 101.6 0
      vertex 95 101.6 0.2
      vertex 117.6 101.6 0.2
    endloop
  endfacet
  facet normal 0 0 1
    outer loop
      vertex 95.8 79.8 0.2
      vertex 95 79 0.2
      vertex 117.6 79 0.2
    endloop
  endfacet
  facet normal 0 0 1
    outer loop
      vertex 95 101.6 0.2
      vertex 95 79 0.2
      vertex 95.8 79.8 0.2
    endloop
  endfacet
  facet normal 0 0 1
    outer loop
      vertex 117.6 101.6 0.2
      vertex 95 101.6 0.2
      vertex 95.8 100.8 0.2
    endloop
  endfacet
  facet normal 0 0 1
    outer loop
      vertex 117.6 101.6 0.2
      vertex 116.8 100.8 0.2
      vertex 117.6 79 0.2
    endloop
  endfacet
  facet normal 0 0 1
    outer loop
      vertex 117.6 101.6 0.2
      vertex 95.8 100.8 0.2
      vertex 116.8 100.8 0.2
    endloop
  endfacet
  facet normal 0 0 1
    outer loop
      vertex 116.8 100.8 0.2
      vertex 116.8 79.8 0.2
      vertex 117.6 79 0.2
    endloop
  endfacet
  facet normal 0 0 1
    outer loop
      vertex 95.8 79.8 0.2
      vertex 95.8 100.8 0.2
      vertex 95 101.6 0.2
    endloop
  endfacet
  facet normal 0 0 1
    outer loop
      vertex 116.8 79.8 0.2
      vertex 95.8 79.8 0.2
      vertex 117.6 79 0.2
    endloop
  endfacet
  facet normal 1 0 0
    outer loop
      vertex 117.6 79 0.2
      vertex 117.6 79 0
      vertex 117.6 101.6 0
    endloop
  endfacet
  facet normal 1 0 0
    outer loop
      vertex 117.6 101.6 0.2
      vertex 117.6 79 0.2
      vertex 117.6 101.6 0
    endloop
  endfacet
  facet normal 1 0 0
    outer loop
      vertex 95.8 100.8 0
      vertex 95.8 100.8 0.2
      vertex 95.8 79.8 0.2
    endloop
  endfacet
  facet normal 1 0 0
    outer loop
      vertex 95.8 79.8 0
      vertex 95.8 100.8 0
      vertex 95.8 79.8 0.2
    endloop
  endfacet
  facet normal 0 -1 0
    outer loop
      vertex 116.8 100.8 0
      vertex 116.8 100.8 0.2
      vertex 95.8 100.8 0.2
    endloop
  endfacet
  facet normal 0 -1 0
    outer loop
      vertex 95.8 100.8 0
      vertex 116.8 100.8 0
      vertex 95.8 100.8 0.2
    endloop
  endfacet
  facet normal -1 0 0
    outer loop
      vertex 116.8 100.8 0.2
      vertex 116.8 100.8 0
      vertex 116.8 79.8 0.2
    endloop
  endfacet
  facet normal -1 0 0
    outer loop
      vertex 116.8 79.8 0.2
      vertex 116.8 100.8 0
      vertex 116.8 79.8 0
    endloop
  endfacet
  facet normal 0 1 0
    outer loop
      vertex 116.8 79.8 0.2
      vertex 116.8 79.8 0
      vertex 95.8 79.8 0.2
    endloop
  endfacet
  facet normal 0 1 0
    outer loop
      vertex 95.8 79.8 0.2
      vertex 116.8 79.8 0
      vertex 95.8 79.8 0
    endloop
  endfacet
  facet normal -1 0 0
    outer loop
      vertex 166.3 80.3 0
      vertex 166.3 80.3 0.2
      vertex 166.3 100.3 0
    endloop
  endfacet
  facet normal -1 0 0
    outer loop
      vertex 166.3 100.3 0
      vertex 166.3 80.3 0.2
      vertex 166.3 100.3 0.2
    endloop
  endfacet
  facet normal 0 -1 0
    outer loop
      vertex 166.3 80.3 0.2
      vertex 166.3 80.3 0
      vertex 186.3 80.3 0
    endloop
  endfacet
  facet normal 0 -1 0
    outer loop
      vertex 186.3 80.3 0.2
      vertex 166.3 80.3 0.2
      vertex 186.3 80.3 0
    endloop
  endfacet
  facet normal 0 0 -1
    outer loop
      vertex 166.3 80.3 0
      vertex 166.3 100.3 0
      vertex 186.3 80.3 0
    endloop
  endfacet
  facet normal 0 0 -1
    outer loop
      vertex 186.3 80.3 0
      vertex 166.3 100.3 0
      vertex 186.3 100.3 0
    endloop
  endfacet
  facet normal 0 1 0
    outer loop
      vertex 166.3 100.3 0
      vertex 166.3 100.3 0.2
      vertex 186.3 100.3 0
    endloop
  endfacet
  facet normal 0 1 0
    outer loop
      vertex 186.3 100.3 0
      vertex 166.3 100.3 0.2
      vertex 186.3 100.3 0.2
    endloop
  endfacet
  facet normal 0 0 1
    outer loop
      vertex 166.3 100.3 0.2
      vertex 166.3 80.3 0.2
      vertex 186.3 80.3 0.2
    endloop
  endfacet
  facet normal 0 0 1
    outer loop
      vertex 186.3 100.3 0.2
      vertex 166.3 100.3 0.2
      vertex 186.3 80.3 0.2
    endloop
  endfacet
  facet normal 1 0 0
    outer loop
      vertex 186.3 80.3 0.2
      vertex 186.3 80.3 0
      vertex 186.3 100.3 0
    endloop
  endfacet
  facet normal 1 0 0
    outer loop
      vertex 186.3 100.3 0.2
      vertex 186.3 80.3 0.2
      vertex 186.3 100.3 0
    endloop
  endfacet
  facet normal -1 0 0
    outer loop
      vertex 165 79 0
      vertex 165 79 0.2
      vertex 165 101.6 0
    endloop
  endfacet
  facet normal -1 0 0
    outer loop
      vertex 165 101.6 0
      vertex 165 79 0.2
      vertex 165 101.6 0.2
    endloop
  endfacet
  facet normal 0 -1 0
    outer loop
      vertex 165 79 0.2
      vertex 165 79 0
      vertex 187.6 79 0
    endloop
  endfacet
  facet normal 0 -1 0
    outer loop
      vertex 187.6 79 0.2
      vertex 165 79 0.2
      vertex 187.6 79 0
    endloop
  endfacet
  facet normal 0 0 -1
    outer loop
      vertex 186.8 79.8 0
      vertex 187.6 79 0
      vertex 165.8 79.8 0
    endloop
  endfacet
  facet normal 0 0 -1
    outer loop
      vertex 165.8 100.8 0
      vertex 165 101.6 0
      vertex 187.6 101.6 0
    endloop
  endfacet
  facet normal 0 0 -1
    outer loop
      vertex 186.8 100.8 0
      vertex 165.8 100.8 0
      vertex 187.6 101.6 0
    endloop
  endfacet
  facet normal 0 0 -1
    outer loop
      vertex 165 79 0
      vertex 165 101.6 0
      vertex 165.8 79.8 0
    endloop
  endfacet
  facet normal 0 0 -1
    outer loop
      vertex 165 79 0
      vertex 165.8 79.8 0
      vertex 187.6 79 0
    endloop
  endfacet
  facet normal 0 0 -1
    outer loop
      vertex 187.6 79 0
      vertex 186.8 79.8 0
      vertex 187.6 101.6 0
    endloop
  endfacet
  facet normal 0 0 -1
    outer loop
      vertex 186.8 79.8 0
      vertex 186.8 100.8 0
      vertex 187.6 101.6 0
    endloop
  endfacet
  facet normal 0 0 -1
    outer loop
      vertex 165.8 79.8 0
      vertex 165 101.6 0
      vertex 165.8 100.8 0
    endloop
  endfacet
  facet normal 0 1 0
    outer loop
      vertex 165 101.6 0
      vertex 165 101.6 0.2
      vertex 187.6 101.6 0
    endloop
  endfacet
  facet normal 0 1 0
    outer loop
      vertex 187.6 101.6 0
      vertex 165 101.6 0.2
      vertex 187.6 101.6 0.2
    endloop
  endfacet
  facet normal 0 0 1
    outer loop
      vertex 165.8 79.8 0.2
      vertex 165 79 0.2
      vertex 187.6 79 0.2
    endloop
  endfacet
  facet normal 0 0 1
    outer loop
      vertex 165 101.6 0.2
      vertex 165 79 0.2
      vertex 165.8 79.8 0.2
    endloop
  endfacet
  facet normal 0 0 1
    outer loop
      vertex 187.6 101.6 0.2
      vertex 165 101.6 0.2
      vertex 165.8 100.8 0.2
    endloop
  endfacet
  facet normal 0 0 1
    outer loop
      vertex 187.6 101.6 0.2
      vertex 186.8 100.8 0.2
      vertex 187.6 79 0.2
    endloop
  endfacet
  facet normal 0 0 1
    outer loop
      vertex 187.6 101.6 0.2
      vertex 165.8 100.8 0.2
      vertex 186.8 100.8 0.2
    endloop
  endfacet
  facet normal 0 0 1
    outer loop
      vertex 186.8 100.8 0.2
      vertex 186.8 79.8 0.2
      vertex 187.6 79 0.2
    endloop
  endfacet
  facet normal 0 0 1
    outer loop
      vertex 165.8 79.8 0.2
      vertex 165.8 100.8 0.2
      vertex 165 101.6 0.2
    endloop
  endfacet
  facet normal 0 0 1
    outer loop
      vertex 186.8 79.8 0.2
      vertex 165.8 79.8 0.2
      vertex 187.6 79 0.2
    endloop
  endfacet
  facet normal 1 0 0
    outer loop
      vertex 187.6 79 0.2
      vertex 187.6 79 0
      vertex 187.6 101.6 0
    endloop
  endfacet
  facet normal 1 0 0
    outer loop
      vertex 187.6 101.6 0.2
      vertex 187.6 79 0.2
      vertex 187.6 101.6 0
    endloop
  endfacet
  facet normal 1 0 0
    outer loop
      vertex 165.8 100.8 0
      vertex 165.8 100.8 0.2
      vertex 165.8 79.8 0.2
    endloop
  endfacet
  facet normal 1 0 0
    outer loop
      vertex 165.8 79.8 0
      vertex 165.8 100.8 0
      vertex 165.8 79.8 0.2
    endloop
  endfacet
  facet normal 0 -1 0
    outer loop
      vertex 186.8 100.8 0
      vertex 186.8 100.8 0.2
      vertex 165.8 100.8 0.2
    endloop
  endfacet
  facet normal 0 -1 0
    outer loop
      vertex 165.8 100.8 0
      vertex 186.8 100.8 0
      vertex 165.8 100.8 0.2
    endloop
  endfacet
  facet normal -1 0 0
    outer loop
      vertex 186.8 100.8 0.2
      vertex 186.8 100.8 0
      vertex 186.8 79.8 0.2
    endloop
  endfacet
  facet normal -1 0 0
    outer loop
      vertex 186.8 79.8 0.2
      vertex 186.8 100.8 0
      vertex 186.8 79.8 0
    endloop
  endfacet
  facet normal 0 1 0
    outer loop
      vertex 186.8 79.8 0.2
      vertex 186.8 79.8 0
      vertex 165.8 79.8 0.2
    endloop
  endfacet
  facet normal 0 1 0
    outer loop
      vertex 165.8 79.8 0.2
      vertex 186.8 79.8 0
      vertex 165.8 79.8 0
    endloop
  endfacet
  facet normal -1 0 0
    outer loop
      vertex 26.3 134.3 0
      vertex 26.3 134.3 0.2
      vertex 26.3 154.3 0
    endloop
  endfacet
  facet normal -1 0 0
    outer loop
      vertex 26.3 154.3 0
      vertex 26.3 134.3 0.2
      vertex 26.3 154.3 0.2
    endloop
  endfacet
  facet normal 0 -1 0
    outer loop
      vertex 26.3 134.3 0.2
      vertex 26.3 134.3 0
      vertex 46.3 134.3 0
    endloop
  endfacet
  facet normal 0 -1 0
    outer loop
      vertex 46.3 134.3 0.2
      vertex 26.3 134.3 0.2
      vertex 46.3 134.3 0
    endloop
  endfacet
  facet normal 0 0 -1
    outer loop
      vertex 26.3 134.3 0
      vertex 26.3 154.3 0
      vertex 46.3 134.3 0
    endloop
  endfacet
  facet normal 0 0 -1
    outer loop
      vertex 46.3 134.3 0
      vertex 26.3 154.3 0
      vertex 46.3 154.3 0
    endloop
  endfacet
  facet normal 0 1 0
    outer loop
      vertex 26.3 154.3 0
      vertex 26.3 154.3 0.2
      vertex 46.3 154.3 0
    endloop
  endfacet
  facet normal 0 1 0
    outer loop
      vertex 46.3 154.3 0
      vertex 26.3 154.3 0.2
      vertex 46.3 154.3 0.2
    endloop
  endfacet
  facet normal 0 0 1
    outer loop
      vertex 26.3 154.3 0.2
      vertex 26.3 134.3 0.2
      vertex 46.3 134.3 0.2
    endloop
  endfacet
  facet normal 0 0 1
    outer loop
      vertex 46.3 154.3 0.2
      vertex 26.3 154.3 0.2
      vertex 46.3 134.3 0.2
    endloop
  endfacet
  facet normal 1 0 0
    outer loop
      vertex 46.3 134.3 0.2
      vertex 46.3 134.3 0
      vertex 46.3 154.3 0
    endloop
  endfacet
  facet normal 1 0 0
    outer loop
      vertex 46.3 154.3 0.2
      vertex 46.3 134.3 0.2
      vertex 46.3 154.3 0
    endloop
  endfacet
  facet normal -1 0 0
    outer loop
      vertex 25 133 0
      vertex 25 133 0.2
      vertex 25 155.6 0
    endloop
  endfacet
  facet normal -1 0 0
    outer loop
      vertex 25 155.6 0
      vertex 25 133 0.2
      vertex 25 155.6 0.2
    endloop
  endfacet
  facet normal 0 -1 0
    outer loop
      vertex 25 133 0.2
      vertex 25 133 0
      vertex 47.6 133 0
    endloop
  endfacet
  facet normal 0 -1 0
    outer loop
      vertex 47.6 133 0.2
      vertex 25 133 0.2
      vertex 47.6 133 0
    endloop
  endfacet
  facet normal 0 0 -1
    outer loop
      vertex 46.8 133.8 0
      vertex 47.6 133 0
      vertex 25.8 133.8 0
    endloop
  endfacet
  facet normal 0 0 -1
    outer loop
      vertex 25.8 154.8 0
      vertex 25 155.6 0
      vertex 47.6 155.6 0
    endloop
  endfacet
  facet normal 0 0 -1
    outer loop
      vertex 46.8 154.8 0
      vertex 25.8 154.8 0
      vertex 47.6 155.6 0
    endloop
  endfacet
  facet normal 0 0 -1
    outer loop
      vertex 25 133 0
      vertex 25 155.6 0
      vertex 25.8 133.8 0
    endloop
  endfacet
  facet normal 0 0 -1
    outer loop
      vertex 25 133 0
      vertex 25.8 133.8 0
      vertex 47.6 133 0
    endloop
  endfacet
  facet normal 0 0 -1
    outer loop
      vertex 47.6 133 0
      vertex 46.8 133.8 0
      vertex 47.6 155.6 0
    endloop
  endfacet
  facet normal 0 0 -1
    outer loop
      vertex 46.8 133.8 0
      vertex 46.8 154.8 0
      vertex 47.6 155.6 0
    endloop
  endfacet
  facet normal 0 0 -1
    outer loop
      vertex 25.8 133.8 0
      vertex 25 155.6 0
      vertex 25.8 154.8 0
    endloop
  endfacet
  facet normal 0 1 0
    outer loop
      vertex 25 155.6 0
      vertex 25 155.6 0.2
      vertex 47.6 155.6 0
    endloop
  endfacet
  facet normal 0 1 0
    outer loop
      vertex 47.6 155.6 0
      vertex 25 155.6 0.2
      vertex 47.6 155.6 0.2
    endloop
  endfacet
  facet normal 0 0 1
    outer loop
      vertex 25.8 133.8 0.2
      vertex 25 133 0.2
      vertex 47.6 133 0.2
    endloop
  endfacet
  facet normal 0 0 1
    outer loop
      vertex 25 155.6 0.2
      vertex 25 133 0.2
      vertex 25.8 133.8 0.2
    endloop
  endfacet
  facet normal 0 0 1
    outer loop
      vertex 47.6 155.6 0.2
      vertex 25 155.6 0.2
      vertex 25.8 154.8 0.2
    endloop
  endfacet
  facet normal 0 0 1
    outer loop
      vertex 47.6 155.6 0.2
      vertex 46.8 154.8 0.2
      vertex 47.6 133 0.2
    endloop
  endfacet
  facet normal 0 0 1
    outer loop
      vertex 47.6 155.6 0.2
      vertex 25.8 154.8 0.2
      vertex 46.8 154.8 0.2
    endloop
  endfacet
  facet normal 0 0 1
    outer loop
      vertex 46.8 154.8 0.2
      vertex 46.8 133.8 0.2
      vertex 47.6 133 0.2
    endloop
  endfacet
  facet normal 0 0 1
    outer loop
      vertex 25.8 133.8 0.2
      vertex 25.8 154.8 0.2
      vertex 25 155.6 0.2
    endloop
  endfacet
  facet normal 0 0 1
    outer loop
      vertex 46.8 133.8 0.2
      vertex 25.8 133.8 0.2
      vertex 47.6 133 0.2
    endloop
  endfacet
  facet normal 1 0 0
    outer loop
      vertex 47.6 133 0.2
      vertex 47.6 133 0
      vertex 47.6 155.6 0
    endloop
  endfacet
  facet normal 1 0 0
    outer loop
      vertex 47.6 155.6 0.2
      vertex 47.6 133 0.2
      vertex 47.6 155.6 0
    endloop
  endfacet
  facet normal 1 0 0
    outer loop
      vertex 25.8 154.8 0
      vertex 25.8 154.8 0.2
      vertex 25.8 133.8 0.2
    endloop
  endfacet
  facet normal 1 0 0
    outer loop
      vertex 25.8 133.8 0
      vertex 25.8 154.8 0
      vertex 25.8 133.8 0.2
    endloop
  endfacet
  facet normal 0 -1 0
    outer loop
      vertex 46.8 154.8 0
      vertex 46.8 154.8 0.2
      vertex 25.8 154.8 0.2
    endloop
  endfacet
  facet normal 0 -1 0
    outer loop
      vertex 25.8 154.8 0
      vertex 46.8 154.8 0
      vertex 25.8 154.8 0.2
    endloop
  endfacet
  facet normal -1 0 0
    outer loop
      vertex 46.8 154.8 0.2
      vertex 46.8 154.8 0
      vertex 46.8 133.8 0.2
    endloop
  endfacet
  facet normal -1 0 0
    outer loop
      vertex 46.8 133.8 0.2
      vertex 46.8 154.8 0
      vertex 46.8 133.8 0
    endloop
  endfacet
  facet normal 0 1 0
    outer loop
      vertex 46.8 133.8 0.2
      vertex 46.8 133.8 0
      vertex 25.8 133.8 0.2
    endloop
  endfacet
  facet normal 0 1 0
    outer loop
      vertex 25.8 133.8 0.2
      vertex 46.8 133.8 0
      vertex 25.8 133.8 0
    endloop
  endfacet
  facet normal -1 0 0
    outer loop
      vertex 96.3 134.3 0
      vertex 96.3 134.3 0.2
      vertex 96.3 154.3 0
    endloop
  endfacet
  facet normal -1 0 0
    outer loop
      vertex 96.3 154.3 0
      vertex 96.3 134.3 0.2
      vertex 96.3 154.3 0.2
    endloop
  endfacet
  facet normal 0 -1 0
    outer loop
      vertex 96.3 134.3 0.2
      vertex 96.3 134.3 0
      vertex 116.3 134.3 0
    endloop
  endfacet
  facet normal 0 -1 0
    outer loop
      vertex 116.3 134.3 0.2
      vertex 96.3 134.3 0.2
      vertex 116.3 134.3 0
    endloop
  endfacet
  facet normal 0 0 -1
    outer loop
      vertex 96.3 134.3 0
      vertex 96.3 154.3 0
      vertex 116.3 134.3 0
    endloop
  endfacet
  facet normal 0 0 -1
    outer loop
      vertex 116.3 134.3 0
      vertex 96.3 154.3 0
      vertex 116.3 154.3 0
    endloop
  endfacet
  facet normal 0 1 0
    outer loop
      vertex 96.3 154.3 0
      vertex 96.3 154.3 0.2
      vertex 116.3 154.3 0
    endloop
  endfacet
  facet normal 0 1 0
    outer loop
      vertex 116.3 154.3 0
      vertex 96.3 154.3 0.2
      vertex 116.3 154.3 0.2
    endloop
  endfacet
  facet normal 0 0 1
    outer loop
      vertex 96.3 154.3 0.2
      vertex 96.3 134.3 0.2
      vertex 116.3 134.3 0.2
    endloop
  endfacet
  facet normal 0 0 1
    outer loop
      vertex 116.3 154.3 0.2
      vertex 96.3 154.3 0.2
      vertex 116.3 134.3 0.2
    endloop
  endfacet
  facet normal 1 0 0
    outer loop
      vertex 116.3 134.3 0.2
      vertex 116.3 134.3 0
      vertex 116.3 154.3 0
    endloop
  endfacet
  facet normal 1 0 0
    outer loop
      vertex 116.3 154.3 0.2
      vertex 116.3 134.3 0.2
      vertex 116.3 154.3 0
    endloop
  endfacet
  facet normal -1 0 0
    outer loop
      vertex 95 133 0
      vertex 95 133 0.2
      vertex 95 155.6 0
    endloop
  endfacet
  facet normal -1 0 0
    outer loop
      vertex 95 155.6 0
      vertex 95 133 0.2
      vertex 95 155.6 0.2
    endloop
  endfacet
  facet normal 0 -1 0
    outer loop
      vertex 95 133 0.2
      vertex 95 133 0
      vertex 117.6 133 0
    endloop
  endfacet
  facet normal 0 -1 0
    outer loop
      vertex 117.6 133 0.2
      vertex 95 133 0.2
      vertex 117.6 133 0
    endloop
  endfacet
  facet normal 0 0 -1
    outer loop
      vertex 116.8 133.8 0
      vertex 117.6 133 0
      vertex 95.8 133.8 0
    endloop
  endfacet
  facet normal 0 0 -1
    outer loop
      vertex 95.8 154.8 0
      vertex 95 155.6 0
      vertex 117.6 155.6 0
    endloop
  endfacet
  facet normal 0 0 -1
    outer loop
      vertex 116.8 154.8 0
      vertex 95.8 154.8 0
      vertex 117.6 155.6 0
    endloop
  endfacet
  facet normal 0 0 -1
    outer loop
      vertex 95 133 0
      vertex 95 155.6 0
      vertex 95.8 133.8 0
    endloop
  endfacet
  facet normal 0 0 -1
    outer loop
      vertex 95 133 0
      vertex 95.8 133.8 0
      vertex 117.6 133 0
    endloop
  endfacet
  facet normal 0 0 -1
    outer loop
      vertex 117.6 133 0
      vertex 116.8 133.8 0
      vertex 117.6 155.6 0
    endloop
  endfacet
  facet normal 0 0 -1
    outer loop
      vertex 116.8 133.8 0
      vertex 116.8 154.8 0
      vertex 117.6 155.6 0
    endloop
  endfacet
  facet normal 0 0 -1
    outer loop
      vertex 95.8 133.8 0
      vertex 95 155.6 0
      vertex 95.8 154.8 0
    endloop
  endfacet
  facet normal 0 1 0
    outer loop
      vertex 95 155.6 0
      vertex 95 155.6 0.2
      vertex 117.6 155.6 0
    endloop
  endfacet
  facet normal 0 1 0
    outer loop
      vertex 117.6 155.6 0
      vertex 95 155.6 0.2
      vertex 117.6 155.6 0.2
    endloop
  endfacet
  facet normal 0 0 1
    outer loop
      vertex 95.8 133.8 0.2
      vertex 95 133 0.2
      vertex 117.6 133 0.2
    endloop
  endfacet
  facet normal 0 0 1
    outer loop
      vertex 95 155.6 0.2
      vertex 95 133 0.2
      vertex 95.8 133.8 0.2
    endloop
  endfacet
  facet normal 0 0 1
    outer loop
      vertex 117.6 155.6 0.2
      vertex 95 155.6 0.2
      vertex 95.8 154.8 0.2
    endloop
  endfacet
  facet normal 0 0 1
    outer loop
      vertex 117.6 155.6 0.2
      vertex 116.8 154.8 0.2
      vertex 117.6 133 0.2
    endloop
  endfacet
  facet normal 0 0 1
    outer loop
      vertex 117.6 155.6 0.2
      vertex 95.8 154.8 0.2
      vertex 116.8 154.8 0.2
    endloop
  endfacet
  facet normal 0 0 1
    outer loop
      vertex 116.8 154.8 0.2
      vertex 116.8 133.8 0.2
      vertex 117.6 133 0.2
    endloop
  endfacet
  facet normal 0 0 1
    outer loop
      vertex 95.8 133.8 0.2
      vertex 95.8 154.8 0.2
      vertex 95 155.6 0.2
    endloop
  endfacet
  facet normal 0 0 1
    outer loop
      vertex 116.8 133.8 0.2
      vertex 95.8 133.8 0.2
      vertex 117.6 133 0.2
    endloop
  endfacet
  facet normal 1 0 0
    outer loop
      vertex 117.6 133 0.2
      vertex 117.6 133 0
      vertex 117.6 155.6 0
    endloop
  endfacet
  facet normal 1 0 0
    outer loop
      vertex 117.6 155.6 0.2
      vertex 117.6 133 0.2
      vertex 117.6 155.6 0
    endloop
  endfacet
  facet normal 1 0 0
    outer loop
      vertex 95.8 154.8 0
      vertex 95.8 154.8 0.2
      vertex 95.8 133.8 0.2
    endloop
  endfacet
  facet normal 1 0 0
    outer loop
      vertex 95.8 133.8 0
      vertex 95.8 154.8 0
      vertex 95.8 133.8 0.2
    endloop
  endfacet
  facet normal 0 -1 0
    outer loop
      vertex 116.8 154.8 0
      vertex 116.8 154.8 0.2
      vertex 95.8 154.8 0.2
    endloop
  endfacet
  facet normal 0 -1 0
    outer loop
      vertex 95.8 154.8 0
      vertex 116.8 154.8 0
      vertex 95.8 154.8 0.2
    endloop
  endfacet
  facet normal -1 0 0
    outer loop
      vertex 116.8 154.8 0.2
      vertex 116.8 154.8 0
      vertex 116.8 133.8 0.2
    endloop
  endfacet
  facet normal -1 0 0
    outer loop
      vertex 116.8 133.8 0.2
      vertex 116.8 154.8 0
      vertex 116.8 133.8 0
    endloop
  endfacet
  facet normal 0 1 0
    outer loop
      vertex 116.8 133.8 0.2
      vertex 116.8 133.8 0
      vertex 95.8 133.8 0.2
    endloop
  endfacet
  facet normal 0 1 0
    outer loop
      vertex 95.8 133.8 0.2
      vertex 116.8 133.8 0
      vertex 95.8 133.8 0
    endloop
  endfacet
  facet normal -1 0 0
    outer loop
      vertex 166.3 134.3 0
      vertex 166.3 134.3 0.2
      vertex 166.3 154.3 0
    endloop
  endfacet
  facet normal -1 0 0
    outer loop
      vertex 166.3 154.3 0
      vertex 166.3 134.3 0.2
      vertex 166.3 154.3 0.2
    endloop
  endfacet
  facet normal 0 -1 0
    outer loop
      vertex 166.3 134.3 0.2
      vertex 166.3 134.3 0
      vertex 186.3 134.3 0
    endloop
  endfacet
  facet normal 0 -1 0
    outer loop
      vertex 186.3 134.3 0.2
      vertex 166.3 134.3 0.2
      vertex 186.3 134.3 0
    endloop
  endfacet
  facet normal 0 0 -1
    outer loop
      vertex 166.3 134.3 0
      vertex 166.3 154.3 0
      vertex 186.3 134.3 0
    endloop
  endfacet
  facet normal 0 0 -1
    outer loop
      vertex 186.3 134.3 0
      vertex 166.3 154.3 0
      vertex 186.3 154.3 0
    endloop
  endfacet
  facet normal 0 1 0
    outer loop
      vertex 166.3 154.3 0
      vertex 166.3 154.3 0.2
      vertex 186.3 154.3 0
    endloop
  endfacet
  facet normal 0 1 0
    outer loop
      vertex 186.3 154.3 0
      vertex 166.3 154.3 0.2
      vertex 186.3 154.3 0.2
    endloop
  endfacet
  facet normal 0 0 1
    outer loop
      vertex 166.3 154.3 0.2
      vertex 166.3 134.3 0.2
      vertex 186.3 134.3 0.2
    endloop
  endfacet
  facet normal 0 0 1
    outer loop
      vertex 186.3 154.3 0.2
      vertex 166.3 154.3 0.2
      vertex 186.3 134.3 0.2
    endloop
  endfacet
  facet normal 1 0 0
    outer loop
      vertex 186.3 134.3 0.2
      vertex 186.3 134.3 0
      vertex 186.3 154.3 0
    endloop
  endfacet
  facet normal 1 0 0
    outer loop
      vertex 186.3 154.3 0.2
      vertex 186.3 134.3 0.2
      vertex 186.3 154.3 0
    endloop
  endfacet
  facet normal -1 0 0
    outer loop
      vertex 165 133 0
      vertex 165 133 0.2
      vertex 165 155.6 0
    endloop
  endfacet
  facet normal -1 0 0
    outer loop
      vertex 165 155.6 0
      vertex 165 133 0.2
      vertex 165 155.6 0.2
    endloop
  endfacet
  facet normal 0 -1 0
    outer loop
      vertex 165 133 0.2
      vertex 165 133 0
      vertex 187.6 133 0
    endloop
  endfacet
  facet normal 0 -1 0
    outer loop
      vertex 187.6 133 0.2
      vertex 165 133 0.2
      vertex 187.6 133 0
    endloop
  endfacet
  facet normal 0 0 -1
    outer loop
      vertex 186.8 133.8 0
      vertex 187.6 133 0
      vertex 165.8 133.8 0
    endloop
  endfacet
  facet normal 0 0 -1
    outer loop
      vertex 165.8 154.8 0
      vertex 165 155.6 0
      vertex 187.6 155.6 0
    endloop
  endfacet
  facet normal 0 0 -1
    outer loop
      vertex 186.8 154.8 0
      vertex 165.8 154.8 0
      vertex 187.6 155.6 0
    endloop
  endfacet
  facet normal 0 0 -1
    outer loop
      vertex 165 133 0
      vertex 165 155.6 0
      vertex 165.8 133.8 0
    endloop
  endfacet
  facet normal 0 0 -1
    outer loop
      vertex 165 133 0
      vertex 165.8 133.8 0
      vertex 187.6 133 0
    endloop
  endfacet
  facet normal 0 0 -1
    outer loop
      vertex 187.6 133 0
      vertex 186.8 133.8 0
      vertex 187.6 155.6 0
    endloop
  endfacet
  facet normal 0 0 -1
    outer loop
      vertex 186.8 133.8 0
      vertex 186.8 154.8 0
      vertex 187.6 155.6 0
    endloop
  endfacet
  facet normal 0 0 -1
    outer loop
      vertex 165.8 133.8 0
      vertex 165 155.6 0
      vertex 165.8 154.8 0
    endloop
  endfacet
  facet normal 0 1 0
    outer loop
      vertex 165 155.6 0
      vertex 165 155.6 0.2
      vertex 187.6 155.6 0
    endloop
  endfacet
  facet normal 0 1 0
    outer loop
      vertex 187.6 155.6 0
      vertex 165 155.6 0.2
      vertex 187.6 155.6 0.2
    endloop
  endfacet
  facet normal 0 0 1
    outer loop
      vertex 165.8 133.8 0.2
      vertex 165 133 0.2
      vertex 187.6 133 0.2
    endloop
  endfacet
  facet normal 0 0 1
    outer loop
      vertex 165 155.6 0.2
      vertex 165 133 0.2
      vertex 165.8 133.8 0.2
    endloop
  endfacet
  facet normal 0 0 1
    outer loop
      vertex 187.6 155.6 0.2
      vertex 165 155.6 0.2
      vertex 165.8 154.8 0.2
    endloop
  endfacet
  facet normal 0 0 1
    outer loop
      vertex 187.6 155.6 0.2
      vertex 186.8 154.8 0.2
      vertex 187.6 133 0.2
    endloop
  endfacet
  facet normal 0 0 1
    outer loop
      vertex 187.6 155.6 0.2
      vertex 165.8 154.8 0.2
      vertex 186.8 154.8 0.2
    endloop
  endfacet
  facet normal 0 0 1
    outer loop
      vertex 186.8 154.8 0.2
      vertex 186.8 133.8 0.2
      vertex 187.6 133 0.2
    endloop
  endfacet
  facet normal 0 0 1
    outer loop
      vertex 165.8 133.8 0.2
      vertex 165.8 154.8 0.2
      vertex 165 155.6 0.2
    endloop
  endfacet
  facet normal 0 0 1
    outer loop
      vertex 186.8 133.8 0.2
      vertex 165.8 133.8 0.2
      vertex 187.6 133 0.2
    endloop
  endfacet
  facet normal 1 0 0
    outer loop
      vertex 187.6 133 0.2
      vertex 187.6 133 0
      vertex 187.6 155.6 0
    endloop
  endfacet
  facet normal 1 0 0
    outer loop
      vertex 187.6 155.6 0.2
      vertex 187.6 133 0.2
      vertex 187.6 155.6 0
    endloop
  endfacet
  facet normal 1 0 0
    outer loop
      vertex 165.8 154.8 0
      vertex 165.8 154.8 0.2
      vertex 165.8 133.8 0.2
    endloop
  endfacet
  facet normal 1 0 0
    outer loop
      vertex 165.8 133.8 0
      vertex 165.8 154.8 0
      vertex 165.8 133.8 0.2
    endloop
  endfacet
  facet normal 0 -1 0
    outer loop
      vertex 186.8 154.8 0
      vertex 186.8 154.8 0.2
      vertex 165.8 154.8 0.2
    endloop
  endfacet
  facet normal 0 -1 0
    outer loop
      vertex 165.8 154.8 0
      vertex 186.8 154.8 0
      vertex 165.8 154.8 0.2
    endloop
  endfacet
  facet normal -1 0 0
    outer loop
      vertex 186.8 154.8 0.2
      vertex 186.8 154.8 0
      vertex 186.8 133.8 0.2
    endloop
  endfacet
  facet normal -1 0 0
    outer loop
      vertex 186.8 133.8 0.2
      vertex 186.8 154.8 0
      vertex 186.8 133.8 0
    endloop
  endfacet
  facet normal 0 1 0
    outer loop
      vertex 186.8 133.8 0.2
      vertex 186.8 133.8 0
      vertex 165.8 133.8 0.2
    endloop
  endfacet
  facet normal 0 1 0
    outer loop
      vertex 165.8 133.8 0.2
      vertex 186.8 133.8 0
      vertex 165.8 133.8 0
    endloop
  endfacet
endsolid OpenSCAD_Model
